{"asset":{"version":"2.0","generator":"babylon.js glTF exporter for Autodesk MAYA 2022 v20240312.5"},"scene":0,"scenes":[{"nodes":[0]}],"nodes":[{"children":[1,2,3,4,5,6,7,8,9,10,11,12,13,14,15,16,17,18,19,20,21,22,23,24,25,26,27,28],"translation":[0.114999875,0.0002581741,0.0149999391],"scale":[0.2,0.2,0.2],"name":"Interior"},{"mesh":0,"name":"Interior (1)"},{"mesh":1,"name":"Interior1"},{"mesh":2,"name":"Interior2"},{"mesh":3,"name":"Interior3","extras":{"MaxHandle":1790}},{"mesh":4,"name":"Interior4","extras":{"MaxHandle":1791}},{"mesh":5,"name":"Interior5","extras":{"MaxHandle":74}},{"mesh":6,"name":"Interior6","extras":{"UDP3DSMAX":"3d66Models: www.3d66.com-ID:707242&cr;&lf;","MaxHandle":1638}},{"mesh":7,"name":"Interior7","extras":{"MaxHandle":1786}},{"mesh":8,"name":"Interior8","extras":{"MaxHandle":1787}},{"mesh":9,"name":"Interior9","extras":{"UDP3DSMAX":"3d66Models: www.3d66.com-ID:707242&cr;&lf;","MaxHandle":1792}},{"mesh":10,"name":"Interior10","extras":{"UDP3DSMAX":"3d66Models: www.3d66.com-ID:707242&cr;&lf;","MaxHandle":1641}},{"mesh":11,"name":"Interior11","extras":{"UDP3DSMAX":"3d66Models: www.3d66.com-ID:707242&cr;&lf;","MaxHandle":1626}},{"mesh":12,"name":"Interior12","extras":{"UDP3DSMAX":"babylonjs_GUID = e2856702-6fdd-4776-a208-d5e6ffda0ee3&cr;&lf;","MaxHandle":71}},{"mesh":13,"name":"Interior13","extras":{"UDP3DSMAX":"3d66Models: www.3d66.com-ID:707242&cr;&lf;","MaxHandle":1642}},{"mesh":14,"name":"Interior14","extras":{"MaxHandle":11}},{"mesh":15,"name":"Interior15","extras":{"UDP3DSMAX":"3d66Models: www.3d66.com-ID:707242&cr;&lf;","MaxHandle":1644}},{"mesh":16,"name":"Interior16","extras":{"UDP3DSMAX":"3d66Models: www.3d66.com-ID:707242&cr;&lf;","MaxHandle":1635}},{"mesh":17,"name":"Interior17","extras":{"MaxHandle":1751}},{"mesh":18,"name":"Interior18","extras":{"MaxHandle":1789}},{"mesh":19,"name":"Interior19","extras":{"MaxHandle":1712}},{"mesh":20,"name":"Interior20","extras":{"MaxHandle":1788}},{"mesh":21,"name":"Interior21","extras":{"MaxHandle":1771}},{"mesh":22,"name":"Interior22"},{"mesh":23,"name":"Interior23"},{"mesh":24,"name":"Interior24"},{"mesh":25,"name":"Interior25"},{"mesh":26,"name":"Interior26"},{"mesh":27,"name":"Interior27"}],"meshes":[{"primitives":[{"attributes":{"POSITION":1,"NORMAL":2},"indices":0,"material":0}],"name":"Interior"},{"primitives":[{"attributes":{"POSITION":4,"NORMAL":5},"indices":3,"material":1}],"name":"Interior1"},{"primitives":[{"attributes":{"POSITION":7,"NORMAL":8},"indices":6,"material":0}],"name":"Interior2"},{"primitives":[{"attributes":{"POSITION":10,"TANGENT":11,"NORMAL":12,"TEXCOORD_0":13},"indices":9,"material":2}],"name":"Interior3"},{"primitives":[{"attributes":{"POSITION":15,"TANGENT":16,"NORMAL":17,"TEXCOORD_0":18},"indices":14,"material":1}],"name":"Interior4"},{"primitives":[{"attributes":{"POSITION":20,"TANGENT":21,"NORMAL":22,"TEXCOORD_0":23},"indices":19,"material":3}],"name":"Interior5"},{"primitives":[{"attributes":{"POSITION":25,"NORMAL":26},"indices":24,"material":4}],"name":"Interior6"},{"primitives":[{"attributes":{"POSITION":28,"TANGENT":29,"NORMAL":30,"TEXCOORD_0":31},"indices":27,"material":5}],"name":"Interior7"},{"primitives":[{"attributes":{"POSITION":33,"TANGENT":34,"NORMAL":35,"TEXCOORD_0":36},"indices":32,"material":6}],"name":"Interior8"},{"primitives":[{"attributes":{"POSITION":38,"TANGENT":39,"NORMAL":40,"TEXCOORD_0":41,"TEXCOORD_1":42},"indices":37,"material":7}],"name":"Interior9"},{"primitives":[{"attributes":{"POSITION":44,"NORMAL":45},"indices":43,"material":8}],"name":"Interior10"},{"primitives":[{"attributes":{"POSITION":47,"TANGENT":48,"NORMAL":49,"TEXCOORD_0":50},"indices":46,"material":8}],"name":"Interior11"},{"primitives":[{"attributes":{"POSITION":52,"TANGENT":53,"NORMAL":54,"TEXCOORD_0":55,"TEXCOORD_1":56},"indices":51,"material":9}],"name":"Interior12"},{"primitives":[{"attributes":{"POSITION":58,"NORMAL":59},"indices":57,"material":8}],"name":"Interior13"},{"primitives":[{"attributes":{"POSITION":61,"TANGENT":62,"NORMAL":63,"TEXCOORD_0":64},"indices":60,"material":10}],"name":"Interior14"},{"primitives":[{"attributes":{"POSITION":66,"NORMAL":67},"indices":65,"material":8}],"name":"Interior15"},{"primitives":[{"attributes":{"POSITION":69,"TANGENT":70,"NORMAL":71,"TEXCOORD_0":72,"TEXCOORD_1":73},"indices":68,"material":11}],"name":"Interior16"},{"primitives":[{"attributes":{"POSITION":75,"TANGENT":76,"NORMAL":77,"TEXCOORD_0":78},"indices":74,"material":12}],"name":"Interior17"},{"primitives":[{"attributes":{"POSITION":80,"TANGENT":81,"NORMAL":82,"TEXCOORD_0":83},"indices":79,"material":13}],"name":"Interior18"},{"primitives":[{"attributes":{"POSITION":85,"TANGENT":86,"NORMAL":87,"TEXCOORD_0":88},"indices":84,"material":14}],"name":"Interior19"},{"primitives":[{"attributes":{"POSITION":90,"TANGENT":91,"NORMAL":92,"TEXCOORD_0":93},"indices":89,"material":15}],"name":"Interior20"},{"primitives":[{"attributes":{"POSITION":95,"NORMAL":96},"indices":94,"material":16}],"name":"Interior21"},{"primitives":[{"attributes":{"POSITION":98,"TANGENT":99,"NORMAL":100,"TEXCOORD_0":101,"TEXCOORD_1":102},"indices":97,"material":17}],"name":"Interior22"},{"primitives":[{"attributes":{"POSITION":104,"NORMAL":105},"indices":103,"material":1}],"name":"Interior23"},{"primitives":[{"attributes":{"POSITION":107,"NORMAL":108},"indices":106,"material":0}],"name":"Interior24"},{"primitives":[{"attributes":{"POSITION":110,"NORMAL":111},"indices":109,"material":1}],"name":"Interior25"},{"primitives":[{"attributes":{"POSITION":113,"NORMAL":114},"indices":112,"material":1}],"name":"Interior26"},{"primitives":[{"attributes":{"POSITION":116,"NORMAL":117},"indices":115,"material":0}],"name":"Interior27"}],"accessors":[{"bufferView":0,"componentType":5123,"count":408,"type":"SCALAR","name":"accessorIndices"},{"bufferView":1,"componentType":5126,"count":208,"max":[2.45000029,2.3,-0.9999998],"min":[2.29999924,-3.81469718E-08,-3.0],"type":"VEC3","name":"accessorPositions"},{"bufferView":1,"byteOffset":2496,"componentType":5126,"count":208,"type":"VEC3","name":"accessorNormals"},{"bufferView":0,"byteOffset":816,"componentType":5123,"count":72,"type":"SCALAR","name":"accessorIndices"},{"bufferView":1,"byteOffset":4992,"componentType":5126,"count":48,"max":[2.3875,2.25,6.62950659],"min":[2.3625,1.05,4.929505],"type":"VEC3","name":"accessorPositions"},{"bufferView":1,"byteOffset":5568,"componentType":5126,"count":48,"type":"VEC3","name":"accessorNormals"},{"bufferView":0,"byteOffset":960,"componentType":5123,"count":720,"type":"SCALAR","name":"accessorIndices"},{"bufferView":1,"byteOffset":6144,"componentType":5126,"count":512,"max":[1.475,2.3,-6.79999876],"min":[-0.525000036,0.9999998,-6.95000029],"type":"VEC3","name":"accessorPositions"},{"bufferView":1,"byteOffset":12288,"componentType":5126,"count":512,"type":"VEC3","name":"accessorNormals"},{"bufferView":0,"byteOffset":2400,"componentType":5123,"count":6,"type":"SCALAR","name":"accessorIndices"},{"bufferView":1,"byteOffset":18432,"componentType":5126,"count":4,"max":[1.06530726,2.364232,6.778628],"min":[0.090049915,1.13890839,6.7786274],"type":"VEC3","name":"accessorPositions"},{"bufferView":2,"componentType":5126,"count":4,"type":"VEC4","name":"accessorTangents"},{"bufferView":1,"byteOffset":18480,"componentType":5126,"count":4,"type":"VEC3","name":"accessorNormals"},{"bufferView":3,"componentType":5126,"count":4,"type":"VEC2","name":"accessorUVs"},{"bufferView":0,"byteOffset":2412,"componentType":5123,"count":6,"type":"SCALAR","name":"accessorIndices"},{"bufferView":1,"byteOffset":18528,"componentType":5126,"count":4,"max":[-1.85454953,2.1616416,2.49999928],"min":[-1.85454953,0.0499999225,0.6049994],"type":"VEC3","name":"accessorPositions"},{"bufferView":2,"byteOffset":64,"componentType":5126,"count":4,"type":"VEC4","name":"accessorTangents"},{"bufferView":1,"byteOffset":18576,"componentType":5126,"count":4,"type":"VEC3","name":"accessorNormals"},{"bufferView":3,"byteOffset":32,"componentType":5126,"count":4,"type":"VEC2","name":"accessorUVs"},{"bufferView":0,"byteOffset":2424,"componentType":5123,"count":30,"type":"SCALAR","name":"accessorIndices"},{"bufferView":1,"byteOffset":18624,"componentType":5126,"count":20,"max":[2.136958,0.90500015,-4.70126057],"min":[1.61695778,0.900000036,-5.29126072],"type":"VEC3","name":"accessorPositions"},{"bufferView":2,"byteOffset":128,"componentType":5126,"count":20,"type":"VEC4","name":"accessorTangents"},{"bufferView":1,"byteOffset":18864,"componentType":5126,"count":20,"type":"VEC3","name":"accessorNormals"},{"bufferView":3,"byteOffset":64,"componentType":5126,"count":20,"type":"VEC2","name":"accessorUVs"},{"bufferView":0,"byteOffset":2484,"componentType":5123,"count":1440,"type":"SCALAR","name":"accessorIndices"},{"bufferView":1,"byteOffset":19104,"componentType":5126,"count":256,"max":[1.85386038,1.09914863,3.08495235],"min":[1.65559232,0.603176534,2.88668418],"type":"VEC3","name":"accessorPositions"},{"bufferView":1,"byteOffset":22176,"componentType":5126,"count":256,"type":"VEC3","name":"accessorNormals"},{"bufferView":0,"byteOffset":5364,"componentType":5123,"count":144,"type":"SCALAR","name":"accessorIndices"},{"bufferView":1,"byteOffset":25248,"componentType":5126,"count":144,"max":[1.07781053,2.37673521,6.798628],"min":[-1.04775047,1.12640512,6.768627],"type":"VEC3","name":"accessorPositions"},{"bufferView":2,"byteOffset":448,"componentType":5126,"count":144,"type":"VEC4","name":"accessorTangents"},{"bufferView":1,"byteOffset":26976,"componentType":5126,"count":144,"type":"VEC3","name":"accessorNormals"},{"bufferView":3,"byteOffset":224,"componentType":5126,"count":144,"type":"VEC2","name":"accessorUVs"},{"bufferView":0,"byteOffset":5652,"componentType":5123,"count":612,"type":"SCALAR","name":"accessorIndices"},{"bufferView":1,"byteOffset":28704,"componentType":5126,"count":320,"max":[-1.84999967,2.21164155,2.54999948],"min":[-2.3,-1.14440915E-07,0.5549995],"type":"VEC3","name":"accessorPositions"},{"bufferView":2,"byteOffset":2752,"componentType":5126,"count":320,"type":"VEC4","name":"accessorTangents"},{"bufferView":1,"byteOffset":32544,"componentType":5126,"count":320,"type":"VEC3","name":"accessorNormals"},{"bufferView":3,"byteOffset":1376,"componentType":5126,"count":320,"type":"VEC2","name":"accessorUVs"},{"bufferView":0,"byteOffset":6876,"componentType":5123,"count":6,"type":"SCALAR","name":"accessorIndices"},{"bufferView":1,"byteOffset":36384,"componentType":5126,"count":4,"max":[-2.25041556,1.71442354,5.300247],"min":[-2.25041747,1.036151,3.999754],"type":"VEC3","name":"accessorPositions"},{"bufferView":2,"byteOffset":7872,"componentType":5126,"count":4,"type":"VEC4","name":"accessorTangents"},{"bufferView":1,"byteOffset":36432,"componentType":5126,"count":4,"type":"VEC3","name":"accessorNormals"},{"bufferView":3,"byteOffset":3936,"componentType":5126,"count":4,"type":"VEC2","name":"accessorUVs"},{"bufferView":3,"byteOffset":3968,"componentType":5126,"count":4,"type":"VEC2","name":"accessorUV2s"},{"bufferView":0,"byteOffset":6888,"componentType":5123,"count":132,"type":"SCALAR","name":"accessorIndices"},{"bufferView":1,"byteOffset":36480,"componentType":5126,"count":58,"max":[1.75879347,1.507951,2.991861],"min":[1.74924362,1.148795,2.982311],"type":"VEC3","name":"accessorPositions"},{"bufferView":1,"byteOffset":37176,"componentType":5126,"count":58,"type":"VEC3","name":"accessorNormals"},{"bufferView":0,"byteOffset":7152,"componentType":5123,"count":2616,"type":"SCALAR","name":"accessorIndices"},{"bufferView":1,"byteOffset":37872,"componentType":5126,"count":581,"max":[0.4633676,0.444560081,6.52022457],"min":[0.4149176,0.3163264,6.47223139],"type":"VEC3","name":"accessorPositions"},{"bufferView":2,"byteOffset":7936,"componentType":5126,"count":581,"type":"VEC4","name":"accessorTangents"},{"bufferView":1,"byteOffset":44844,"componentType":5126,"count":581,"type":"VEC3","name":"accessorNormals"},{"bufferView":3,"byteOffset":4000,"componentType":5126,"count":581,"type":"VEC2","name":"accessorUVs"},{"bufferView":0,"byteOffset":12384,"componentType":5123,"count":1401,"type":"SCALAR","name":"accessorIndices"},{"bufferView":1,"byteOffset":51816,"componentType":5126,"count":571,"max":[0.493644446,1.261908,-6.499337],"min":[0.398667216,0.8899997,-6.73734426],"type":"VEC3","name":"accessorPositions"},{"bufferView":2,"byteOffset":17232,"componentType":5126,"count":571,"type":"VEC4","name":"accessorTangents"},{"bufferView":1,"byteOffset":58668,"componentType":5126,"count":571,"type":"VEC3","name":"accessorNormals"},{"bufferView":3,"byteOffset":8648,"componentType":5126,"count":571,"type":"VEC2","name":"accessorUVs"},{"bufferView":3,"byteOffset":13216,"componentType":5126,"count":571,"type":"VEC2","name":"accessorUV2s"},{"bufferView":0,"byteOffset":15188,"componentType":5123,"count":120,"type":"SCALAR","name":"accessorIndices"},{"bufferView":1,"byteOffset":65520,"componentType":5126,"count":72,"max":[1.97992778,1.15771043,3.21292162],"min":[1.5287416,1.15403187,2.76173568],"type":"VEC3","name":"accessorPositions"},{"bufferView":1,"byteOffset":66384,"componentType":5126,"count":72,"type":"VEC3","name":"accessorNormals"},{"bufferView":0,"byteOffset":15428,"componentType":5123,"count":3774,"type":"SCALAR","name":"accessorIndices"},{"bufferView":1,"byteOffset":67248,"componentType":5126,"count":1884,"max":[2.45,3.050001,6.800001],"min":[-3.59999967,0.0,-6.79999971],"type":"VEC3","name":"accessorPositions"},{"bufferView":2,"byteOffset":26368,"componentType":5126,"count":1884,"type":"VEC4","name":"accessorTangents"},{"bufferView":1,"byteOffset":89856,"componentType":5126,"count":1884,"type":"VEC3","name":"accessorNormals"},{"bufferView":3,"byteOffset":17784,"componentType":5126,"count":1884,"type":"VEC2","name":"accessorUVs"},{"bufferView":0,"byteOffset":22976,"componentType":5123,"count":120,"type":"SCALAR","name":"accessorIndices"},{"bufferView":1,"byteOffset":112464,"componentType":5126,"count":72,"max":[1.97992778,1.49619234,3.21292162],"min":[1.5287416,1.49251366,2.76173568],"type":"VEC3","name":"accessorPositions"},{"bufferView":1,"byteOffset":113328,"componentType":5126,"count":72,"type":"VEC3","name":"accessorNormals"},{"bufferView":0,"byteOffset":23216,"componentType":5123,"count":79215,"type":"SCALAR","name":"accessorIndices"},{"bufferView":1,"byteOffset":114192,"componentType":5126,"count":30907,"max":[2.185873,3.00000143,6.73364162],"min":[-3.572004,-0.005138855,-5.53037357],"type":"VEC3","name":"accessorPositions"},{"bufferView":2,"byteOffset":56512,"componentType":5126,"count":30907,"type":"VEC4","name":"accessorTangents"},{"bufferView":1,"byteOffset":485076,"componentType":5126,"count":30907,"type":"VEC3","name":"accessorNormals"},{"bufferView":3,"byteOffset":32856,"componentType":5126,"count":30907,"type":"VEC2","name":"accessorUVs"},{"bufferView":3,"byteOffset":280112,"componentType":5126,"count":30907,"type":"VEC2","name":"accessorUV2s"},{"bufferView":0,"byteOffset":181648,"componentType":5123,"count":1326,"type":"SCALAR","name":"accessorIndices"},{"bufferView":1,"byteOffset":855960,"componentType":5126,"count":884,"max":[0.593356,3.05000019,0.5616044],"min":[-2.37,7.62939436E-08,-2.54999971],"type":"VEC3","name":"accessorPositions"},{"bufferView":2,"byteOffset":551024,"componentType":5126,"count":884,"type":"VEC4","name":"accessorTangents"},{"bufferView":1,"byteOffset":866568,"componentType":5126,"count":884,"type":"VEC3","name":"accessorNormals"},{"bufferView":3,"byteOffset":527368,"componentType":5126,"count":884,"type":"VEC2","name":"accessorUVs"},{"bufferView":0,"byteOffset":184300,"componentType":5123,"count":6,"type":"SCALAR","name":"accessorIndices"},{"bufferView":1,"byteOffset":877176,"componentType":5126,"count":4,"max":[-0.0599898137,2.364232,6.778628],"min":[-1.03524721,1.13890839,6.7786274],"type":"VEC3","name":"accessorPositions"},{"bufferView":2,"byteOffset":565168,"componentType":5126,"count":4,"type":"VEC4","name":"accessorTangents"},{"bufferView":1,"byteOffset":877224,"componentType":5126,"count":4,"type":"VEC3","name":"accessorNormals"},{"bufferView":3,"byteOffset":534440,"componentType":5126,"count":4,"type":"VEC2","name":"accessorUVs"},{"bufferView":0,"byteOffset":184312,"componentType":5123,"count":1824,"type":"SCALAR","name":"accessorIndices"},{"bufferView":1,"byteOffset":877272,"componentType":5126,"count":1178,"max":[2.25743365,3.01298451,6.69907331],"min":[2.19448256,0.0430622846,-2.88713026],"type":"VEC3","name":"accessorPositions"},{"bufferView":2,"byteOffset":565232,"componentType":5126,"count":1178,"type":"VEC4","name":"accessorTangents"},{"bufferView":1,"byteOffset":891408,"componentType":5126,"count":1178,"type":"VEC3","name":"accessorNormals"},{"bufferView":3,"byteOffset":534472,"componentType":5126,"count":1178,"type":"VEC2","name":"accessorUVs"},{"bufferView":0,"byteOffset":187960,"componentType":5123,"count":36,"type":"SCALAR","name":"accessorIndices"},{"bufferView":1,"byteOffset":905544,"componentType":5126,"count":14,"max":[-2.29999971,3.05,6.799999],"min":[-2.3,0.0,0.542499959],"type":"VEC3","name":"accessorPositions"},{"bufferView":2,"byteOffset":584080,"componentType":5126,"count":14,"type":"VEC4","name":"accessorTangents"},{"bufferView":1,"byteOffset":905712,"componentType":5126,"count":14,"type":"VEC3","name":"accessorNormals"},{"bufferView":3,"byteOffset":543896,"componentType":5126,"count":14,"type":"VEC2","name":"accessorUVs"},{"bufferView":0,"byteOffset":188032,"componentType":5123,"count":114,"type":"SCALAR","name":"accessorIndices"},{"bufferView":1,"byteOffset":905880,"componentType":5126,"count":76,"max":[1.80001187,3.01276541,6.50048065],"min":[-2.935451,2.99112725,-5.3049283],"type":"VEC3","name":"accessorPositions"},{"bufferView":1,"byteOffset":906792,"componentType":5126,"count":76,"type":"VEC3","name":"accessorNormals"},{"bufferView":0,"byteOffset":188260,"componentType":5123,"count":58320,"type":"SCALAR","name":"accessorIndices"},{"bufferView":1,"byteOffset":907704,"componentType":5126,"count":15372,"max":[-1.90769708,2.084116,2.39573836],"min":[-2.12330031,0.05000016,0.724061131],"type":"VEC3","name":"accessorPositions"},{"bufferView":2,"byteOffset":584304,"componentType":5126,"count":15372,"type":"VEC4","name":"accessorTangents"},{"bufferView":1,"byteOffset":1092168,"componentType":5126,"count":15372,"type":"VEC3","name":"accessorNormals"},{"bufferView":3,"byteOffset":544008,"componentType":5126,"count":15372,"type":"VEC2","name":"accessorUVs"},{"bufferView":3,"byteOffset":666984,"componentType":5126,"count":15372,"type":"VEC2","name":"accessorUV2s"},{"bufferView":0,"byteOffset":304900,"componentType":5123,"count":144,"type":"SCALAR","name":"accessorIndices"},{"bufferView":1,"byteOffset":1276632,"componentType":5126,"count":96,"max":[2.39,2.133,-1.16699982],"min":[2.35999942,0.04999991,-2.83299971],"type":"VEC3","name":"accessorPositions"},{"bufferView":1,"byteOffset":1277784,"componentType":5126,"count":96,"type":"VEC3","name":"accessorNormals"},{"bufferView":0,"byteOffset":305188,"componentType":5123,"count":720,"type":"SCALAR","name":"accessorIndices"},{"bufferView":1,"byteOffset":1278936,"componentType":5126,"count":512,"max":[2.45000076,2.3,1.19999993],"min":[2.299999,0.9999998,-0.60000205],"type":"VEC3","name":"accessorPositions"},{"bufferView":1,"byteOffset":1285080,"componentType":5126,"count":512,"type":"VEC3","name":"accessorNormals"},{"bufferView":0,"byteOffset":306628,"componentType":5123,"count":72,"type":"SCALAR","name":"accessorIndices"},{"bufferView":1,"byteOffset":1291224,"componentType":5126,"count":48,"max":[2.3875,2.25,1.14999974],"min":[2.3625,1.04999983,-0.5500019],"type":"VEC3","name":"accessorPositions"},{"bufferView":1,"byteOffset":1291800,"componentType":5126,"count":48,"type":"VEC3","name":"accessorNormals"},{"bufferView":0,"byteOffset":306772,"componentType":5123,"count":72,"type":"SCALAR","name":"accessorIndices"},{"bufferView":1,"byteOffset":1292376,"componentType":5126,"count":48,"max":[1.425,2.25,-6.862499],"min":[-0.475,1.04999983,-6.8875],"type":"VEC3","name":"accessorPositions"},{"bufferView":1,"byteOffset":1292952,"componentType":5126,"count":48,"type":"VEC3","name":"accessorNormals"},{"bufferView":0,"byteOffset":306916,"componentType":5123,"count":720,"type":"SCALAR","name":"accessorIndices"},{"bufferView":1,"byteOffset":1293528,"componentType":5126,"count":512,"max":[2.45000076,2.30000019,6.67950726],"min":[2.299999,0.9999998,4.87950468],"type":"VEC3","name":"accessorPositions"},{"bufferView":1,"byteOffset":1299672,"componentType":5126,"count":512,"type":"VEC3","name":"accessorNormals"}],"bufferViews":[{"buffer":0,"byteLength":308356,"name":"bufferViewScalar"},{"buffer":0,"byteOffset":308356,"byteLength":1305816,"byteStride":12,"name":"bufferViewFloatVec3"},{"buffer":0,"byteOffset":1614172,"byteLength":830256,"byteStride":16,"name":"bufferViewFloatVec4"},{"buffer":0,"byteOffset":2444428,"byteLength":789960,"byteStride":8,"name":"bufferViewFloatVec2"}],"buffers":[{"uri":"Living Room.bin","byteLength":3234388}],"materials":[{"pbrMetallicRoughness":{"baseColorFactor":[0.0389221571,0.0389221571,0.0389221571,1.0],"metallicFactor":0.1,"roughnessFactor":0.25},"name":"StingrayPBS5"},{"pbrMetallicRoughness":{"baseColorFactor":[0.5,0.5,0.5,0.5],"metallicFactor":0.5,"roughnessFactor":0.1},"alphaMode":"BLEND","name":"StingrayPBS6","extras":{"use_opacity_map":{"resultType":5,"stringResult":""},"opacity":{"resultType":5,"stringResult":""}}},{"pbrMetallicRoughness":{"baseColorTexture":{"index":0},"metallicFactor":0.0,"roughnessFactor":0.0},"name":"MaterialFBXASC032FBXASC0352146801359"},{"pbrMetallicRoughness":{"metallicFactor":0.0,"roughnessFactor":0.165830582},"emissiveFactor":[1.0,1.0,1.0],"name":"MaterialFBXASC032FBXASC0352143567290"},{"pbrMetallicRoughness":{"baseColorFactor":[0.545098066,0.494117677,0.447058856,0.109000027],"metallicFactor":0.0,"roughnessFactor":0.167226642},"alphaMode":"BLEND","name":"Mat3d66FBXASC045707242FBXASC04513FBXASC0455970"},{"pbrMetallicRoughness":{"baseColorTexture":{"index":1},"metallicFactor":0.0,"roughnessFactor":0.0},"name":"MaterialFBXASC032FBXASC0352146801357"},{"pbrMetallicRoughness":{"baseColorFactor":[0.0209580846,0.0209580846,0.0209580846,1.0],"metallicFactor":0.01,"roughnessFactor":0.5},"name":"StingrayPBS11"},{"pbrMetallicRoughness":{"baseColorFactor":[0.0479041934,0.0479041934,0.0479041934,1.0],"metallicFactor":0.0,"roughnessFactor":0.1},"name":"StingrayPBS9"},{"pbrMetallicRoughness":{"baseColorFactor":[0.5,0.5,0.5,1.0],"metallicFactor":0.0,"roughnessFactor":0.450053632},"name":"lambert1"},{"pbrMetallicRoughness":{"baseColorFactor":[0.6916168,0.6916168,0.6916168,1.0],"metallicFactor":0.5,"roughnessFactor":0.25},"name":"StingrayPBS12"},{"pbrMetallicRoughness":{"baseColorTexture":{"index":2},"metallicFactor":0.05,"roughnessFactor":0.5},"name":"StingrayPBS1"},{"pbrMetallicRoughness":{"baseColorTexture":{"index":3},"metallicFactor":0.0,"roughnessFactor":0.5},"name":"StingrayPBS3"},{"pbrMetallicRoughness":{"baseColorTexture":{"index":4},"metallicFactor":0.02,"roughnessFactor":0.5},"name":"StingrayPBS2"},{"pbrMetallicRoughness":{"baseColorTexture":{"index":5},"metallicFactor":0.0,"roughnessFactor":0.0},"name":"MaterialFBXASC032FBXASC0352146801358"},{"pbrMetallicRoughness":{"baseColorTexture":{"index":6},"metallicFactor":0.0,"roughnessFactor":0.33},"name":"StingrayPBS7"},{"pbrMetallicRoughness":{"baseColorFactor":[0.6706587,0.6706587,0.6706587,1.0],"metallicFactor":0.0,"roughnessFactor":0.33},"name":"StingrayPBS10"},{"pbrMetallicRoughness":{"metallicFactor":0.0,"roughnessFactor":0.33},"emissiveFactor":[0.365079373,0.365079373,0.365079373],"name":"StingrayPBS13"},{"pbrMetallicRoughness":{"baseColorFactor":[0.5,0.5,0.5,0.547619045],"metallicFactor":0.2,"roughnessFactor":0.3301},"alphaMode":"BLEND","name":"StingrayPBS8","extras":{"use_opacity_map":{"resultType":5,"stringResult":""},"opacity":{"resultType":5,"stringResult":""}}}],"textures":[{"sampler":0,"source":0,"name":"Object286Corona_Diffuse.jpg"},{"sampler":0,"source":1,"name":" _313_Corona_Diffuse.jpg"},{"sampler":0,"source":2,"name":"Line001Corona_Diffuse.jpeg"},{"sampler":0,"source":3,"name":"Obj3d66-707242-43-731Corona_Diffuse.jpeg"},{"sampler":0,"source":4,"name":"Box076Corona_Diffuse.jpeg"},{"sampler":0,"source":5,"name":"Object285Corona_Diffuse.jpg"},{"sampler":0,"source":6,"name":"Box065Corona_Diffuse.jpeg"}],"images":[{"uri":"Object286Corona_Diffuse.jpg"},{"uri":" _313_Corona_Diffuse.jpg"},{"uri":"Line001Corona_Diffuse.jpeg"},{"uri":"Obj3d66-707242-43-731Corona_Diffuse.jpeg"},{"uri":"Box076Corona_Diffuse.jpeg"},{"uri":"Object285Corona_Diffuse.jpg"},{"uri":"Box065Corona_Diffuse.jpeg"}],"samplers":[{"magFilter":9729,"minFilter":9987}]}