{"asset":{"version":"2.0","generator":"babylon.js glTF exporter for Autodesk MAYA 2022 v20240312.5"},"scene":0,"scenes":[{"nodes":[0]}],"nodes":[{"children":[1,2,3,4,5,6],"name":"Square_LED"},{"mesh":0,"name":"Square_LED_2"},{"mesh":1,"name":"Square_LED_3"},{"mesh":2,"name":"Square_LED_6"},{"mesh":3,"name":"Square_LED_7"},{"mesh":4,"name":"Square_LED_8"},{"mesh":5,"name":"Square_LED_4"}],"meshes":[{"primitives":[{"attributes":{"POSITION":1,"TANGENT":2,"NORMAL":3,"TEXCOORD_0":4},"indices":0,"material":0}],"name":"Square_LED_2"},{"primitives":[{"attributes":{"POSITION":6,"TANGENT":7,"NORMAL":8,"TEXCOORD_0":9},"indices":5,"material":1}],"name":"Square_LED_3"},{"primitives":[{"attributes":{"POSITION":11,"TANGENT":12,"NORMAL":13,"TEXCOORD_0":14},"indices":10,"material":2}],"name":"Square_LED_6"},{"primitives":[{"attributes":{"POSITION":16,"TANGENT":17,"NORMAL":18,"TEXCOORD_0":19},"indices":15,"material":2}],"name":"Square_LED_7"},{"primitives":[{"attributes":{"POSITION":21,"TANGENT":22,"NORMAL":23,"TEXCOORD_0":24},"indices":20,"material":3}],"name":"Square_LED_8"},{"primitives":[{"attributes":{"POSITION":26,"TANGENT":27,"NORMAL":28,"TEXCOORD_0":29},"indices":25,"material":4}],"name":"Square_LED_4"}],"accessors":[{"bufferView":0,"componentType":5123,"count":3528,"type":"SCALAR","name":"accessorIndices"},{"bufferView":1,"componentType":5126,"count":785,"max":[0.0600988232,0.0169275515,0.0600988232],"min":[-0.0600988232,0.00521449558,-0.0600988232],"type":"VEC3","name":"accessorPositions"},{"bufferView":2,"componentType":5126,"count":785,"type":"VEC4","name":"accessorTangents"},{"bufferView":1,"byteOffset":9420,"componentType":5126,"count":785,"type":"VEC3","name":"accessorNormals"},{"bufferView":3,"componentType":5126,"count":785,"type":"VEC2","name":"accessorUVs"},{"bufferView":0,"byteOffset":7056,"componentType":5123,"count":918,"type":"SCALAR","name":"accessorIndices"},{"bufferView":1,"byteOffset":18840,"componentType":5126,"count":208,"max":[0.0494573154,0.0164107084,0.0494573154],"min":[-0.0494573154,0.009635377,-0.0494573154],"type":"VEC3","name":"accessorPositions"},{"bufferView":2,"byteOffset":12560,"componentType":5126,"count":208,"type":"VEC4","name":"accessorTangents"},{"bufferView":1,"byteOffset":21336,"componentType":5126,"count":208,"type":"VEC3","name":"accessorNormals"},{"bufferView":3,"byteOffset":6280,"componentType":5126,"count":208,"type":"VEC2","name":"accessorUVs"},{"bufferView":0,"byteOffset":8892,"componentType":5123,"count":2772,"type":"SCALAR","name":"accessorIndices"},{"bufferView":1,"byteOffset":23832,"componentType":5126,"count":582,"max":[0.05107899,0.02982335,0.05107899],"min":[-0.05107899,0.01687593,-0.05107899],"type":"VEC3","name":"accessorPositions"},{"bufferView":2,"byteOffset":15888,"componentType":5126,"count":582,"type":"VEC4","name":"accessorTangents"},{"bufferView":1,"byteOffset":30816,"componentType":5126,"count":582,"type":"VEC3","name":"accessorNormals"},{"bufferView":3,"byteOffset":7944,"componentType":5126,"count":582,"type":"VEC2","name":"accessorUVs"},{"bufferView":0,"byteOffset":14436,"componentType":5123,"count":12612,"type":"SCALAR","name":"accessorIndices"},{"bufferView":1,"byteOffset":37800,"componentType":5126,"count":3756,"max":[0.0483133122,0.0317581967,0.0485997759],"min":[-0.048313316,0.02847262,-0.04860936],"type":"VEC3","name":"accessorPositions"},{"bufferView":2,"byteOffset":25200,"componentType":5126,"count":3756,"type":"VEC4","name":"accessorTangents"},{"bufferView":1,"byteOffset":82872,"componentType":5126,"count":3756,"type":"VEC3","name":"accessorNormals"},{"bufferView":3,"byteOffset":12600,"componentType":5126,"count":3756,"type":"VEC2","name":"accessorUVs"},{"bufferView":0,"byteOffset":39660,"componentType":5123,"count":124644,"type":"SCALAR","name":"accessorIndices"},{"bufferView":1,"byteOffset":127944,"componentType":5126,"count":26144,"max":[0.00733636366,0.03202382,0.0640045851],"min":[-0.00733636366,0.00275020115,-0.06400435],"type":"VEC3","name":"accessorPositions"},{"bufferView":2,"byteOffset":85296,"componentType":5126,"count":26144,"type":"VEC4","name":"accessorTangents"},{"bufferView":1,"byteOffset":441672,"componentType":5126,"count":26144,"type":"VEC3","name":"accessorNormals"},{"bufferView":3,"byteOffset":42648,"componentType":5126,"count":26144,"type":"VEC2","name":"accessorUVs"},{"bufferView":0,"byteOffset":288948,"componentType":5123,"count":5100,"type":"SCALAR","name":"accessorIndices"},{"bufferView":1,"byteOffset":755400,"componentType":5126,"count":1522,"max":[0.00625336636,0.012990322,0.06466499],"min":[-0.00625336636,0.000262842164,-0.06466475],"type":"VEC3","name":"accessorPositions"},{"bufferView":2,"byteOffset":503600,"componentType":5126,"count":1522,"type":"VEC4","name":"accessorTangents"},{"bufferView":1,"byteOffset":773664,"componentType":5126,"count":1522,"type":"VEC3","name":"accessorNormals"},{"bufferView":3,"byteOffset":251800,"componentType":5126,"count":1522,"type":"VEC2","name":"accessorUVs"}],"bufferViews":[{"buffer":0,"byteLength":299148,"name":"bufferViewScalar"},{"buffer":0,"byteOffset":299148,"byteLength":791928,"byteStride":12,"name":"bufferViewFloatVec3"},{"buffer":0,"byteOffset":1091076,"byteLength":527952,"byteStride":16,"name":"bufferViewFloatVec4"},{"buffer":0,"byteOffset":1619028,"byteLength":263976,"byteStride":8,"name":"bufferViewFloatVec2"}],"buffers":[{"uri":"Back Lit Downlight.bin","byteLength":1883004}],"materials":[{"pbrMetallicRoughness":{"baseColorFactor":[0.6796407,0.6796407,0.6796407,1.0],"metallicFactor":0.5,"roughnessFactor":0.5},"name":"StingrayPBS5"},{"pbrMetallicRoughness":{"metallicFactor":0.1,"roughnessFactor":0.1},"emissiveFactor":[0.45,0.45,0.45],"name":"StingrayPBS6"},{"pbrMetallicRoughness":{"baseColorFactor":[0.122,0.122,0.122,1.0],"metallicFactor":0.9,"roughnessFactor":0.5},"name":"StingrayPBS3"},{"pbrMetallicRoughness":{"baseColorFactor":[0.131736532,0.131736532,0.131736532,1.0],"metallicFactor":0.8,"roughnessFactor":0.15},"name":"StingrayPBS4"},{"pbrMetallicRoughness":{"baseColorFactor":[0.0149700595,0.0149700595,0.0149700595,1.0],"metallicFactor":0.3,"roughnessFactor":0.35},"name":"StingrayPBS7"}]}