{"asset":{"version":"2.0","generator":"babylon.js glTF exporter for Autodesk MAYA 2022 v20240312.5"},"scene":0,"scenes":[{"nodes":[0]}],"nodes":[{"children":[1,2,3,4,5,6],"name":"CRBO"},{"mesh":0,"name":"CRBO_13","extras":{"currentUVSet":"map1"}},{"mesh":1,"name":"CRBO_14","extras":{"currentUVSet":"map1"}},{"mesh":2,"name":"CRBO_26"},{"mesh":3,"name":"CRBO_25"},{"mesh":4,"name":"CRBO_2","extras":{"currentUVSet":"map1"}},{"mesh":5,"name":"CRBO_27"}],"meshes":[{"primitives":[{"attributes":{"POSITION":1,"TANGENT":2,"NORMAL":3,"TEXCOORD_0":4},"indices":0,"material":0}],"name":"CRBO_13"},{"primitives":[{"attributes":{"POSITION":6,"TANGENT":7,"NORMAL":8,"TEXCOORD_0":9},"indices":5,"material":1}],"name":"CRBO_14"},{"primitives":[{"attributes":{"POSITION":11,"TANGENT":12,"NORMAL":13,"TEXCOORD_0":14},"indices":10,"material":2}],"name":"CRBO_26"},{"primitives":[{"attributes":{"POSITION":16,"TANGENT":17,"NORMAL":18,"TEXCOORD_0":19},"indices":15,"material":3}],"name":"CRBO_25"},{"primitives":[{"attributes":{"POSITION":21,"TANGENT":22,"NORMAL":23,"TEXCOORD_0":24},"indices":20,"material":4}],"name":"CRBO_2"},{"primitives":[{"attributes":{"POSITION":26,"TANGENT":27,"NORMAL":28,"TEXCOORD_0":29},"indices":25,"material":5}],"name":"CRBO_27"}],"accessors":[{"bufferView":0,"componentType":5123,"count":1488,"type":"SCALAR","name":"accessorIndices"},{"bufferView":1,"componentType":5126,"count":321,"max":[0.0645490661,0.000950626,0.06455694],"min":[-0.06455045,0.000546586059,-0.0645644441],"type":"VEC3","name":"accessorPositions"},{"bufferView":2,"componentType":5126,"count":321,"type":"VEC4","name":"accessorTangents"},{"bufferView":1,"byteOffset":3852,"componentType":5126,"count":321,"type":"VEC3","name":"accessorNormals"},{"bufferView":3,"componentType":5126,"count":321,"type":"VEC2","name":"accessorUVs"},{"bufferView":0,"byteOffset":2976,"componentType":5123,"count":3264,"type":"SCALAR","name":"accessorIndices"},{"bufferView":1,"byteOffset":7704,"componentType":5126,"count":733,"max":[0.075630635,0.0235185046,0.07553936],"min":[-0.0756246,0.00217718724,-0.0755292848],"type":"VEC3","name":"accessorPositions"},{"bufferView":2,"byteOffset":5136,"componentType":5126,"count":733,"type":"VEC4","name":"accessorTangents"},{"bufferView":1,"byteOffset":16500,"componentType":5126,"count":733,"type":"VEC3","name":"accessorNormals"},{"bufferView":3,"byteOffset":2568,"componentType":5126,"count":733,"type":"VEC2","name":"accessorUVs"},{"bufferView":0,"byteOffset":9504,"componentType":5123,"count":20160,"type":"SCALAR","name":"accessorIndices"},{"bufferView":1,"byteOffset":25296,"componentType":5126,"count":4288,"max":[0.07711476,0.0111454232,0.04726499],"min":[-0.07710757,0.006697236,-0.0472549275],"type":"VEC3","name":"accessorPositions"},{"bufferView":2,"byteOffset":16864,"componentType":5126,"count":4288,"type":"VEC4","name":"accessorTangents"},{"bufferView":1,"byteOffset":76752,"componentType":5126,"count":4288,"type":"VEC3","name":"accessorNormals"},{"bufferView":3,"byteOffset":8432,"componentType":5126,"count":4288,"type":"VEC2","name":"accessorUVs"},{"bufferView":0,"byteOffset":49824,"componentType":5123,"count":19920,"type":"SCALAR","name":"accessorIndices"},{"bufferView":1,"byteOffset":128208,"componentType":5126,"count":4252,"max":[0.07642771,0.0165526383,0.0472633578],"min":[-0.07642051,0.00189491583,-0.0472533],"type":"VEC3","name":"accessorPositions"},{"bufferView":2,"byteOffset":85472,"componentType":5126,"count":4252,"type":"VEC4","name":"accessorTangents"},{"bufferView":1,"byteOffset":179232,"componentType":5126,"count":4252,"type":"VEC3","name":"accessorNormals"},{"bufferView":3,"byteOffset":42736,"componentType":5126,"count":4252,"type":"VEC2","name":"accessorUVs"},{"bufferView":0,"byteOffset":89664,"componentType":5123,"count":4128,"type":"SCALAR","name":"accessorIndices"},{"bufferView":1,"byteOffset":230256,"componentType":5126,"count":1046,"max":[0.0767769441,0.00219592219,0.07674731],"min":[-0.07677811,0.000217636378,-0.07674731],"type":"VEC3","name":"accessorPositions"},{"bufferView":2,"byteOffset":153504,"componentType":5126,"count":1046,"type":"VEC4","name":"accessorTangents"},{"bufferView":1,"byteOffset":242808,"componentType":5126,"count":1046,"type":"VEC3","name":"accessorNormals"},{"bufferView":3,"byteOffset":76752,"componentType":5126,"count":1046,"type":"VEC2","name":"accessorUVs"},{"bufferView":0,"byteOffset":97920,"componentType":5123,"count":15840,"type":"SCALAR","name":"accessorIndices"},{"bufferView":1,"byteOffset":255360,"componentType":5126,"count":3408,"max":[0.0761841759,0.0163806975,0.048284892],"min":[-0.0761769861,0.0158051718,-0.04827483],"type":"VEC3","name":"accessorPositions"},{"bufferView":2,"byteOffset":170240,"componentType":5126,"count":3408,"type":"VEC4","name":"accessorTangents"},{"bufferView":1,"byteOffset":296256,"componentType":5126,"count":3408,"type":"VEC3","name":"accessorNormals"},{"bufferView":3,"byteOffset":85120,"componentType":5126,"count":3408,"type":"VEC2","name":"accessorUVs"}],"bufferViews":[{"buffer":0,"byteLength":129600,"name":"bufferViewScalar"},{"buffer":0,"byteOffset":129600,"byteLength":337152,"byteStride":12,"name":"bufferViewFloatVec3"},{"buffer":0,"byteOffset":466752,"byteLength":224768,"byteStride":16,"name":"bufferViewFloatVec4"},{"buffer":0,"byteOffset":691520,"byteLength":112384,"byteStride":8,"name":"bufferViewFloatVec2"}],"buffers":[{"uri":"CRBO.bin","byteLength":803904}],"materials":[{"pbrMetallicRoughness":{"metallicFactor":0.05,"roughnessFactor":0.8},"emissiveFactor":[0.45,0.45,0.45],"name":"StingrayPBS3"},{"pbrMetallicRoughness":{"baseColorFactor":[0.671,0.671,0.671,1.0],"metallicFactor":0.9,"roughnessFactor":0.35},"name":"StingrayPBS2"},{"pbrMetallicRoughness":{"baseColorFactor":[0.451,0.451,0.451,1.0],"metallicFactor":0.8,"roughnessFactor":0.5},"name":"StingrayPBS6"},{"pbrMetallicRoughness":{"baseColorFactor":[0.78,0.78,0.78,1.0],"metallicFactor":0.5,"roughnessFactor":0.5},"name":"StingrayPBS5"},{"pbrMetallicRoughness":{"metallicFactor":0.1,"roughnessFactor":0.25},"name":"StingrayPBS1"},{"pbrMetallicRoughness":{"baseColorFactor":[0.671,0.671,0.671,1.0],"metallicFactor":0.8,"roughnessFactor":0.15},"name":"StingrayPBS4"}]}